<svg id="visual" viewBox="0 0 1920 1080" width="1920" height="1080" xmlns="http://www.w3.org/2000/svg" xmlns:xlink="http://www.w3.org/1999/xlink" version="1.1"><rect x="0" y="0" width="1920" height="1080" fill="#002541"></rect><defs><linearGradient id="grad1_0" x1="43.8%" y1="0%" x2="100%" y2="100%"><stop offset="14.444444444444446%" stop-color="#28b2c5" stop-opacity="1"></stop><stop offset="85.55555555555554%" stop-color="#28b2c5" stop-opacity="1"></stop></linearGradient></defs><defs><linearGradient id="grad1_1" x1="43.8%" y1="0%" x2="100%" y2="100%"><stop offset="14.444444444444446%" stop-color="#28b2c5" stop-opacity="1"></stop><stop offset="85.55555555555554%" stop-color="#1093ae" stop-opacity="1"></stop></linearGradient></defs><defs><linearGradient id="grad1_2" x1="43.8%" y1="0%" x2="100%" y2="100%"><stop offset="14.444444444444446%" stop-color="#017594" stop-opacity="1"></stop><stop offset="85.55555555555554%" stop-color="#1093ae" stop-opacity="1"></stop></linearGradient></defs><defs><linearGradient id="grad1_3" x1="43.8%" y1="0%" x2="100%" y2="100%"><stop offset="14.444444444444446%" stop-color="#017594" stop-opacity="1"></stop><stop offset="85.55555555555554%" stop-color="#005979" stop-opacity="1"></stop></linearGradient></defs><defs><linearGradient id="grad1_4" x1="43.8%" y1="0%" x2="100%" y2="100%"><stop offset="14.444444444444446%" stop-color="#003e5d" stop-opacity="1"></stop><stop offset="85.55555555555554%" stop-color="#005979" stop-opacity="1"></stop></linearGradient></defs><defs><linearGradient id="grad1_5" x1="43.8%" y1="0%" x2="100%" y2="100%"><stop offset="14.444444444444446%" stop-color="#003e5d" stop-opacity="1"></stop><stop offset="85.55555555555554%" stop-color="#002541" stop-opacity="1"></stop></linearGradient></defs><defs><linearGradient id="grad2_0" x1="0%" y1="0%" x2="56.3%" y2="100%"><stop offset="14.444444444444446%" stop-color="#28b2c5" stop-opacity="1"></stop><stop offset="85.55555555555554%" stop-color="#28b2c5" stop-opacity="1"></stop></linearGradient></defs><defs><linearGradient id="grad2_1" x1="0%" y1="0%" x2="56.3%" y2="100%"><stop offset="14.444444444444446%" stop-color="#1093ae" stop-opacity="1"></stop><stop offset="85.55555555555554%" stop-color="#28b2c5" stop-opacity="1"></stop></linearGradient></defs><defs><linearGradient id="grad2_2" x1="0%" y1="0%" x2="56.3%" y2="100%"><stop offset="14.444444444444446%" stop-color="#1093ae" stop-opacity="1"></stop><stop offset="85.55555555555554%" stop-color="#017594" stop-opacity="1"></stop></linearGradient></defs><defs><linearGradient id="grad2_3" x1="0%" y1="0%" x2="56.3%" y2="100%"><stop offset="14.444444444444446%" stop-color="#005979" stop-opacity="1"></stop><stop offset="85.55555555555554%" stop-color="#017594" stop-opacity="1"></stop></linearGradient></defs><defs><linearGradient id="grad2_4" x1="0%" y1="0%" x2="56.3%" y2="100%"><stop offset="14.444444444444446%" stop-color="#005979" stop-opacity="1"></stop><stop offset="85.55555555555554%" stop-color="#003e5d" stop-opacity="1"></stop></linearGradient></defs><defs><linearGradient id="grad2_5" x1="0%" y1="0%" x2="56.3%" y2="100%"><stop offset="14.444444444444446%" stop-color="#002541" stop-opacity="1"></stop><stop offset="85.55555555555554%" stop-color="#003e5d" stop-opacity="1"></stop></linearGradient></defs><g transform="translate(1920, 0)"><path d="M0 1026C-74.6 942.4 -149.1 858.7 -217.7 812.3C-286.2 765.9 -348.8 756.8 -430 744.8C-511.2 732.8 -611.2 718 -664.7 664.7C-718.2 611.4 -725.2 519.6 -781.2 451C-837.1 382.4 -942.1 336.9 -991 265.5C-1040 194.2 -1033 97.1 -1026 0L0 0Z" fill="#00314f"></path><path d="M0 855C-62.1 785.3 -124.3 715.6 -181.4 677C-238.5 638.3 -290.6 630.6 -358.3 620.7C-426 610.7 -509.3 598.3 -553.9 553.9C-598.5 509.5 -604.3 433 -651 375.8C-697.6 318.6 -785.1 280.7 -825.9 221.3C-866.7 161.9 -860.8 80.9 -855 0L0 0Z" fill="#004b6b"></path><path d="M0 684C-49.7 628.2 -99.4 572.5 -145.1 541.6C-190.8 510.6 -232.5 504.5 -286.7 496.5C-340.8 488.5 -407.5 478.6 -443.1 443.1C-478.8 407.6 -483.5 346.4 -520.8 300.7C-558.1 254.9 -628 224.6 -660.7 177C-693.3 129.5 -688.7 64.7 -684 0L0 0Z" fill="#006787"></path><path d="M0 513C-37.3 471.2 -74.6 429.4 -108.8 406.2C-143.1 383 -174.4 378.4 -215 372.4C-255.6 366.4 -305.6 359 -332.3 332.3C-359.1 305.7 -362.6 259.8 -390.6 225.5C-418.6 191.2 -471 168.4 -495.5 132.8C-520 97.1 -516.5 48.6 -513 0L0 0Z" fill="#0684a1"></path><path d="M0 342C-24.9 314.1 -49.7 286.2 -72.6 270.8C-95.4 255.3 -116.3 252.3 -143.3 248.3C-170.4 244.3 -203.7 239.3 -221.6 221.6C-239.4 203.8 -241.7 173.2 -260.4 150.3C-279 127.5 -314 112.3 -330.3 88.5C-346.7 64.7 -344.3 32.4 -342 0L0 0Z" fill="#1ca3ba"></path><path d="M0 171C-12.4 157.1 -24.9 143.1 -36.3 135.4C-47.7 127.7 -58.1 126.1 -71.7 124.1C-85.2 122.1 -101.9 119.7 -110.8 110.8C-119.7 101.9 -120.9 86.6 -130.2 75.2C-139.5 63.7 -157 56.1 -165.2 44.3C-173.3 32.4 -172.2 16.2 -171 0L0 0Z" fill="#28b2c5"></path></g><g transform="translate(0, 1080)"><path d="M0 -1026C57.9 -899.2 115.9 -772.3 201.4 -751.5C286.9 -730.6 399.9 -815.8 457 -791.5C514.1 -767.3 515.2 -633.7 568.5 -568.5C621.8 -503.4 727.2 -506.7 811.5 -468.5C895.7 -430.3 958.8 -350.6 991 -265.5C1023.3 -180.5 1024.6 -90.3 1026 0L0 0Z" fill="#00314f"></path><path d="M0 -855C48.3 -749.3 96.6 -643.6 167.8 -626.2C239 -608.9 333.3 -679.8 380.8 -659.6C428.4 -639.4 429.4 -528.1 473.8 -473.8C518.2 -419.5 606 -422.3 676.2 -390.4C746.4 -358.6 799 -292.1 825.9 -221.3C852.7 -150.5 853.9 -75.2 855 0L0 0Z" fill="#004b6b"></path><path d="M0 -684C38.6 -599.4 77.2 -514.9 134.2 -501C191.2 -487.1 266.6 -543.9 304.7 -527.7C342.7 -511.5 343.5 -422.4 379 -379C414.5 -335.6 484.8 -337.8 541 -312.3C597.1 -286.9 639.2 -233.7 660.7 -177C682.2 -120.4 683.1 -60.2 684 0L0 0Z" fill="#006787"></path><path d="M0 -513C29 -449.6 57.9 -386.2 100.7 -375.7C143.4 -365.3 200 -407.9 228.5 -395.8C257 -383.7 257.6 -316.8 284.3 -284.3C310.9 -251.7 363.6 -253.4 405.7 -234.3C447.9 -215.1 479.4 -175.3 495.5 -132.8C511.6 -90.3 512.3 -45.1 513 0L0 0Z" fill="#0684a1"></path><path d="M0 -342C19.3 -299.7 38.6 -257.4 67.1 -250.5C95.6 -243.5 133.3 -271.9 152.3 -263.8C171.4 -255.8 171.7 -211.2 189.5 -189.5C207.3 -167.8 242.4 -168.9 270.5 -156.2C298.6 -143.4 319.6 -116.9 330.3 -88.5C341.1 -60.2 341.5 -30.1 342 0L0 0Z" fill="#1ca3ba"></path><path d="M0 -171C9.7 -149.9 19.3 -128.7 33.6 -125.2C47.8 -121.8 66.7 -136 76.2 -131.9C85.7 -127.9 85.9 -105.6 94.8 -94.8C103.6 -83.9 121.2 -84.5 135.2 -78.1C149.3 -71.7 159.8 -58.4 165.2 -44.3C170.5 -30.1 170.8 -15 171 0L0 0Z" fill="#28b2c5"></path></g></svg>