<svg viewBox="0 0 1920 1080" height="1080" width="1920" xmlns="http://www.w3.org/2000/svg" version="1.1"><g transform-origin="center" transform="scale(1, 1) rotate(0)"><rect x="0" y="0" width="1920" height="1080" fill="#59607bff"></rect><linearGradient id="linear-gradient-rg"><stop offset="0%" stop-color="#73ffedff" stop-opacity="100%"></stop><stop offset="100%" stop-color="#47fcbcff" stop-opacity="100%"></stop></linearGradient><filter x="-2%" y="-2%" width="104%" height="104%" filterUnits="objectBoundingBox" id="strokeStyle"><feTurbulence type="fractalNoise" baseFrequency="1.2" numOctaves="3" result="noise"></feTurbulence><feDisplacementMap xChannelSelector="R" yChannelSelector="G" scale="3" in="SourceGraphic" result="newSource"></feDisplacementMap></filter><g filter="url(#strokeStyle)"><path d="M 1724 540 C1724 794.6666666666666 1214.6666666666667 1304 960 1304  C705.3333333333334 1304 196 794.6666666666666 196 540  C196 285.33333333333337 705.3333333333334 -224 960 -224  C1214.6666666666667 -224 1724 285.33333333333337 1724 540" fill="none" stroke-linecap="round" stroke="url(#linear-gradient-rg)" stroke-width="20" style="transform-origin: center center 0px; transform: scale(1.2) translate(0px, 2px); transition: all 0.4s cubic-bezier(0.16, 1, 0.3, 1) 0s;"></path><path d="M 1581 540 C1581 747 1167 1161 960.0000000000001 1161  C753.0000000000001 1161 339.0000000000001 747 339.0000000000001 540  C339.0000000000001 333 753.0000000000001 -81 960.0000000000001 -81  C1167 -81 1581 333 1581 540" fill="none" stroke-linecap="round" stroke="url(#linear-gradient-rg)" stroke-width="10" style="transform-origin: center center 0px; transform: scale(1.2) translate(0px, 2px); transition: all 0.4s cubic-bezier(0.16, 1, 0.3, 1) 0s;"></path><path d="M 1438 540 C1438 699.3333333333334 1119.3333333333333 1018 960 1018  C800.6666666666666 1018 482 699.3333333333334 482 540  C482 380.66666666666663 800.6666666666666 62 960 62  C1119.3333333333333 62 1438 380.66666666666663 1438 540" fill="none" stroke-linecap="round" stroke="url(#linear-gradient-rg)" stroke-width="6.666666666666667" style="transform-origin: center center 0px; transform: scale(1.2) translate(0px, 2px); transition: all 0.4s cubic-bezier(0.16, 1, 0.3, 1) 0s;"></path><path d="M 1295 540 C1295 651.6666666666666 1071.6666666666667 875 960 875  C848.3333333333334 875 625 651.6666666666666 625 540  C625 428.3333333333333 848.3333333333334 205 960 205  C1071.6666666666667 205 1295 428.3333333333333 1295 540" fill="none" stroke-linecap="round" stroke="url(#linear-gradient-rg)" stroke-width="5" style="transform-origin: center center 0px; transform: scale(1.2) translate(0px, 2px); transition: all 0.4s cubic-bezier(0.16, 1, 0.3, 1) 0s;"></path></g></g></svg>